<?xml version="1.0" encoding="utf-8"?>
<!-- Generator: Adobe Illustrator 24.1.0, SVG Export Plug-In . SVG Version: 6.00 Build 0)  -->
<svg version="1.1" id="Layer_1" xmlns="http://www.w3.org/2000/svg" xmlns:xlink="http://www.w3.org/1999/xlink" x="0px" y="0px"
	 viewBox="0 0 45.2 48.1" style="enable-background:new 0 0 45.2 48.1;" xml:space="preserve">
<style type="text/css">
	.st0{fill:#1175BC;}
	.st1{fill:#8CC640;}
	.st2{fill:#FBFCFD;}
</style>
<path class="st0" d="M22.4,3.8c3.7,1.6,7.4,3.3,11.1,4.9c2.1,0.9,4.1,1.8,6.3,2.8c-3,1.5-5.8,2.9-8.7,4.4c-2.8,1.4-5.5,2.8-8.3,4.2
	c-0.3,0.2-0.6,0.3-1,0.1c-5.7-2.9-11.3-5.7-17.1-8.7c1.8-0.8,3.5-1.5,5.3-2.3c3.9-1.7,7.8-3.4,11.6-5.1C21.7,4,22,4,22.1,3.8
	C22.2,3.8,22.3,3.8,22.4,3.8z M15.4,8.8c-2.2,2.2-1.8,5.6,1,7.4c1.9,1.3,4,1.8,6.4,1.6c2.1-0.2,4.1-0.9,5.7-2.3
	C31,13.3,31,10,28.3,7.9c-2.8-2.2-6-2.3-9.5-1.3c0.6,0.3,0.8,0.3,1.2,0.2c1.8-0.4,3.3,0.3,4.7,1.1c0.4,0.3,0.8,0.6,1,1.1
	c0.6,1.1,0.2,2-1,2.4c-2,0.6-3.7-0.8-3.5-2.9c0.1-0.5-0.1-0.7-0.6-0.8C20.1,7.6,20,8,20,8.5c-0.5-0.2-0.3-0.9-0.9-0.9
	c-0.5,0-1.1-0.1-1.6-0.1c-0.2,0-0.3-0.1-0.4,0.1c-0.2,0.4,0,1.7,0.6,2.1c-0.9-0.3-0.8,0.2-0.8,0.6c0,0.6,0.4,0.3,0.7,0.3
	c0.8,0.2,1.7,0.1,2.6,0.5c0.9,0.5,1.5,1.3,1.3,2c-0.2,0.7-1,1.2-2,1.2c-2.3,0-5-2.5-3.8-5.5c0-0.1,0-0.2,0-0.2
	C15.5,8.7,15.5,8.8,15.4,8.8z"/>
<path class="st1" d="M3.9,12.3c5.8,2.9,11.7,5.9,17.5,8.8c0.4,0.2,0.6,0.4,0.6,0.9c-0.1,6.9-0.1,13.8-0.2,20.7
	c0,0.9-0.4,0.5-0.7,0.3c-5.5-3.2-11-6.4-16.6-9.7c-0.2-0.1-0.4-0.2-0.6-0.3C3.9,26.1,3.9,19.2,3.9,12.3z M6.1,14.6
	c-0.1,0-0.2,0.1-0.3,0.1c0,6,0,12,0,18c0,0.3,0.1,0.5,0.4,0.7c1.9,0.9,3.8,2,5.7,2.8c1.1,0.5,2.2,1,3.4,1c2.4,0.1,4-1.2,4.5-3.6
	c0.9-4.4-0.2-8.4-2.9-11.9C14,18.3,9.9,16.6,6.1,14.6z"/>
<path class="st0" d="M40.6,33c-3.8,2.2-7.7,4.5-11.5,6.7c-2,1.2-4,2.4-6.1,3.5c-0.2-0.3-0.1-0.6-0.1-0.9c0-6.8,0-13.6,0-20.3
	c0-0.5,0.1-0.8,0.6-1.1c5.7-2.9,11.4-5.8,17.1-8.7C40.6,19.2,40.6,26.1,40.6,33z M33.6,24.2c-1.5-1.6-2.8-3-4-4.4
	c-0.4-0.4-0.6-0.4-1.1-0.2c-1.1,0.6-2.2,1.2-3.3,1.8c-0.3,0.2-0.5,0.4-0.5,0.8c0,6,0,11.9-0.1,17.9c0,0.7,0.2,0.8,0.8,0.4
	c0.9-0.6,1.9-1.1,2.9-1.6c1-0.5,1.7-1.1,1.6-2.5c-0.2-1.6,0-3.2,0-4.8c0-0.3-0.1-0.5,0.1-0.8c1.3,1.4,2.6,2.8,3.9,4.2
	c0.4,0.4,0.7,0.5,1.1,0.2c1-0.7,2.1-1.2,3.2-1.8c0.4-0.2,0.6-0.5,0.6-1c0-5.9,0-11.9,0.1-17.8c0-0.6-0.1-0.8-0.7-0.4
	c-1.3,0.7-2.5,1.4-3.8,2.1c-0.6,0.3-0.8,0.6-0.8,1.3C33.6,19.8,33.6,21.9,33.6,24.2z"/>
<path class="st2" d="M15.6,9c-1.2,3.1,1.5,5.6,3.8,5.5c1,0,1.8-0.5,2-1.2c0.2-0.7-0.4-1.5-1.3-2c-0.8-0.4-1.7-0.3-2.6-0.5
	c-0.2-0.1-0.7,0.2-0.7-0.3c0-0.4-0.1-0.9,0.8-0.6C17,9.3,16.8,8.1,17,7.6c0.1-0.2,0.3-0.1,0.4-0.1c0.5,0,1.1,0.1,1.6,0.1
	c0.6,0,0.5,0.7,0.9,0.9c0-0.6,0.1-0.9,0.8-0.8c0.5,0.1,0.7,0.3,0.6,0.8c-0.2,2.1,1.5,3.5,3.5,2.9c1.2-0.3,1.6-1.3,1-2.4
	c-0.3-0.5-0.6-0.8-1-1.1c-1.4-0.9-3-1.5-4.7-1.1c-0.4,0.1-0.7,0-1.2-0.2c3.4-1,6.6-0.9,9.5,1.3c2.7,2.1,2.7,5.4,0.2,7.7
	c-1.6,1.4-3.6,2.1-5.7,2.3c-2.3,0.3-4.4-0.3-6.4-1.6c-2.8-1.9-3.2-5.2-1-7.4C15.5,8.9,15.5,8.9,15.6,9z"/>
<path class="st2" d="M15.4,8.8c0-0.1,0-0.2,0.1-0.1c0,0,0,0.1,0,0.2C15.5,8.9,15.5,8.9,15.4,8.8z"/>
<path class="st2" d="M6.1,14.6c3.8,2,7.9,3.6,10.7,7.2c2.8,3.5,3.9,7.5,2.9,11.9c-0.5,2.3-2.1,3.7-4.5,3.6c-1.1-0.1-2.3-0.5-3.4-1
	c-1.9-0.9-3.8-1.9-5.7-2.8c-0.3-0.1-0.4-0.3-0.4-0.7c0-6,0-12,0-18C5.9,14.7,6,14.7,6.1,14.6z M8.3,18.1c0,4.6,0,9.1,0,13.6
	c0,0.3,0,0.5,0.3,0.7c1.5,0.7,2.9,1.6,4.6,2c2.2,0.5,3.7-0.4,4.2-2.7c0.3-1.5,0.2-3-0.1-4.5C16.1,22.4,12.6,20,8.3,18.1z"/>
<path class="st2" d="M33.6,24.2c0-2.3,0-4.4,0-6.5c0-0.7,0.2-1,0.8-1.3c1.3-0.7,2.5-1.4,3.8-2.1c0.6-0.3,0.7-0.2,0.7,0.4
	c0,5.9-0.1,11.9-0.1,17.8c0,0.5-0.2,0.8-0.6,1C37.1,34,36,34.6,35,35.3c-0.4,0.3-0.7,0.2-1.1-0.2c-1.3-1.4-2.6-2.8-3.9-4.2
	c-0.2,0.3-0.1,0.6-0.1,0.8c0,1.6-0.1,3.2,0,4.8c0.2,1.4-0.5,2-1.6,2.5c-1,0.5-1.9,1-2.9,1.6c-0.5,0.3-0.8,0.3-0.8-0.4
	c0-6,0.1-11.9,0.1-17.9c0-0.4,0.1-0.6,0.5-0.8c1.1-0.6,2.2-1.2,3.3-1.8c0.4-0.3,0.7-0.2,1.1,0.2C30.9,21.2,32.2,22.6,33.6,24.2z
	 M35.9,31.2c-1.3-0.7-2-1.9-2.8-2.8c-1.4-1.5-2.8-3-4.1-4.5c-0.3-0.3-0.5-0.7-0.9-1c-0.2-0.1-0.4-0.3-0.7-0.2
	c-0.3,0.1-0.2,0.4-0.2,0.7c0,4.4,0,8.7,0,13.1c0,0.2-0.1,0.6,0.2,0.7c0.4,0,0.3-0.4,0.3-0.6c0-1.7,0-3.3,0-5c0-2.4,0-4.7,0-7.1
	c0-0.2-0.1-0.4,0.2-0.5c0.1,0,0.2,0.1,0.3,0.1c0.6,0.8,1.4,1.4,2,2.2c1.7,2,3.6,3.8,5.3,5.8c0.2,0.2,0.3,0.5,0.7,0.3
	c0.3-0.1,0.3-0.4,0.3-0.7c0-4.5,0.1-8.9,0.1-13.4c0-0.2,0.2-0.5-0.2-0.5c-0.3,0-0.4,0.3-0.4,0.6c0,1,0,2.1,0,3.1
	C35.9,24.7,35.9,27.9,35.9,31.2z"/>
<path class="st1" d="M8.3,18.1c4.3,1.9,7.8,4.3,9,9c0.4,1.5,0.4,3,0.1,4.5c-0.5,2.3-1.9,3.2-4.2,2.7c-1.7-0.4-3.1-1.2-4.6-2
	c-0.3-0.2-0.3-0.4-0.3-0.7C8.3,27.2,8.3,22.7,8.3,18.1z M8.9,19c0,4.2,0,8.3,0,12.3c0,0.3,0,0.5,0.3,0.6c1.4,0.7,2.7,1.5,4.3,1.7
	c1.6,0.2,2.8-0.6,3.2-2.1c0.4-1.6,0.3-3.3-0.1-4.9C15.4,22.8,12.6,20.7,8.9,19z"/>
<path class="st0" d="M35.9,31.2c0-3.3,0-6.5,0-9.7c0-1,0-2.1,0-3.1c0-0.3,0.1-0.6,0.4-0.6c0.3,0,0.2,0.4,0.2,0.5
	c0,4.5,0,8.9-0.1,13.4c0,0.3,0,0.6-0.3,0.7c-0.4,0.1-0.5-0.1-0.7-0.3c-1.7-2-3.6-3.8-5.3-5.8c-0.6-0.7-1.4-1.3-2-2.2
	c-0.1-0.1-0.2-0.2-0.3-0.1c-0.3,0.1-0.2,0.3-0.2,0.5c0,2.4,0,4.7,0,7.1c0,1.7,0,3.3,0,5c0,0.2,0.1,0.7-0.3,0.6
	c-0.3,0-0.2-0.4-0.2-0.7c0-4.4,0-8.7,0-13.1c0-0.2-0.1-0.6,0.2-0.7c0.3-0.1,0.4,0.1,0.7,0.2c0.4,0.2,0.6,0.6,0.9,1
	c1.3,1.5,2.7,3,4.1,4.5C33.9,29.3,34.6,30.4,35.9,31.2z"/>
<path class="st2" d="M8.9,19c3.7,1.7,6.6,3.8,7.7,7.7c0.5,1.6,0.5,3.2,0.1,4.9c-0.4,1.6-1.6,2.3-3.2,2.1c-1.6-0.2-2.9-1-4.3-1.7
	c-0.3-0.1-0.3-0.4-0.3-0.6C8.9,27.3,8.9,23.2,8.9,19z M14.8,28.3c0-2.4-1.1-4.2-3.2-5.4c-0.3-0.2-0.6-0.4-0.6,0.3c0,2.3,0,4.6,0,7
	c0,0.3,0.1,0.5,0.4,0.7c2,1,3.3,0.3,3.4-1.9C14.8,28.7,14.8,28.5,14.8,28.3z"/>
<path class="st1" d="M14.8,28.3c0,0.2,0,0.3,0,0.5c-0.1,2.2-1.4,2.9-3.4,1.9c-0.3-0.2-0.4-0.3-0.4-0.7c0-2.3,0-4.6,0-7
	c0-0.7,0.3-0.4,0.6-0.3C13.7,24.1,14.9,25.9,14.8,28.3z"/>
</svg>
